<?xml version="1.0" standalone="no"?>
<!DOCTYPE svg PUBLIC "-//W3C//DTD SVG 20010904//EN"
 "http://www.w3.org/TR/2001/REC-SVG-20010904/DTD/svg10.dtd">
<svg version="1.0" xmlns="http://www.w3.org/2000/svg"
 width="500.000000pt" height="500.000000pt" viewBox="0 0 500.000000 500.000000"
 preserveAspectRatio="xMidYMid meet">
<metadata>
Created by potrace 1.11, written by Peter Selinger 2001-2013
</metadata>
<g transform="translate(0.000000,500.000000) scale(0.100000,-0.100000)"
fill="#000000" stroke="none">
<path d="M4686 3883 c3 -15 9 -30 13 -33 4 -3 10 -15 13 -27 5 -18 2 -23 -12
-23 -10 0 -23 -13 -31 -32 -17 -40 -122 -153 -197 -209 -31 -24 -58 -47 -60
-51 -2 -5 -10 -8 -18 -8 -8 0 -14 -4 -14 -10 0 -5 -7 -10 -15 -10 -8 0 -15 -4
-15 -10 0 -5 -6 -10 -14 -10 -7 0 -19 -7 -26 -15 -6 -8 -46 -33 -88 -56 -43
-23 -80 -47 -84 -53 -4 -6 -8 -8 -8 -3 0 4 -17 -3 -37 -16 -21 -13 -92 -50
-158 -83 -66 -32 -123 -63 -127 -69 -4 -5 -8 -6 -8 -1 0 4 -11 1 -25 -8 -13
-9 -31 -16 -39 -16 -8 0 -16 -5 -18 -11 -2 -5 -10 -11 -18 -13 -8 -1 -25 -8
-38 -15 -13 -7 -46 -19 -73 -27 -28 -8 -72 -28 -99 -44 -28 -16 -50 -28 -50
-25 0 7 -95 -37 -101 -47 -3 -5 -12 -11 -20 -12 -17 -4 -141 -60 -191 -87 -21
-11 -38 -17 -38 -13 0 4 -9 -1 -20 -11 -11 -10 -20 -15 -20 -11 0 4 -12 -2
-26 -13 -14 -11 -32 -17 -41 -14 -11 4 -14 2 -9 -5 5 -8 0 -12 -13 -12 -11 0
-22 -3 -25 -8 -2 -4 -38 -25 -80 -46 -42 -22 -76 -43 -76 -48 0 -5 -4 -7 -8
-4 -10 6 -96 -72 -111 -101 -6 -12 -11 -31 -11 -42 0 -12 -5 -21 -12 -21 -6 0
-9 -3 -5 -6 3 -3 1 -18 -4 -32 -5 -14 -7 -32 -4 -41 4 -11 10 -8 24 15 20 32
85 104 94 104 3 0 32 17 64 38 32 21 83 52 113 68 30 16 57 32 58 37 2 4 12 7
22 7 10 0 20 4 22 8 3 7 69 40 248 126 25 11 47 24 48 29 2 4 8 4 13 1 5 -3
39 8 74 25 36 16 65 27 65 24 0 -4 6 1 13 12 9 11 19 15 27 10 8 -5 11 -4 7 2
-6 9 60 45 86 47 5 1 15 10 23 20 8 11 14 17 14 13 0 -9 338 165 406 209 13 9
24 12 24 8 0 -5 4 -4 8 1 9 13 191 125 202 125 5 0 10 4 12 8 2 5 32 28 68 52
36 24 90 63 120 88 61 50 170 162 170 175 0 4 9 17 20 29 12 13 20 17 20 9 0
-18 -42 -91 -52 -91 -4 0 -8 -5 -8 -12 0 -22 -155 -163 -270 -245 -36 -25 -66
-50 -68 -55 -2 -4 -8 -8 -13 -8 -5 0 -42 -22 -83 -50 -41 -27 -79 -50 -85 -50
-6 0 -11 -3 -11 -7 0 -5 -26 -21 -58 -38 -31 -16 -59 -32 -62 -35 -6 -6 -62
-36 -165 -89 -38 -19 -73 -40 -77 -46 -4 -5 -8 -6 -8 -2 0 5 -12 -1 -26 -12
-15 -11 -30 -18 -35 -15 -5 3 -9 1 -9 -4 0 -5 -15 -12 -34 -15 -19 -3 -53 -17
-75 -32 -23 -14 -46 -23 -51 -20 -6 4 -10 2 -10 -2 0 -8 -71 -39 -78 -34 -2 1
-10 -6 -19 -16 -9 -11 -12 -12 -8 -3 4 9 0 7 -9 -4 -8 -10 -19 -15 -25 -11 -6
3 -11 0 -11 -9 0 -9 -60 -44 -157 -92 -87 -43 -161 -82 -164 -87 -3 -4 -12 -9
-20 -11 -8 -1 -29 -10 -46 -19 -18 -10 -36 -17 -39 -16 -4 0 -10 -3 -13 -8 -7
-10 -108 -73 -117 -73 -3 0 -19 -10 -34 -22 -15 -13 -42 -34 -60 -48 -17 -14
-38 -30 -45 -35 -20 -17 -67 -104 -60 -115 3 -5 -1 -22 -9 -38 -8 -16 -13 -37
-11 -48 2 -10 4 -22 4 -26 1 -5 6 -8 11 -8 6 0 10 6 8 13 -3 18 44 86 93 133
45 43 144 113 217 154 23 13 42 28 42 32 0 5 4 7 9 4 5 -3 14 1 21 9 7 8 19
15 26 15 8 0 14 5 14 10 0 6 9 10 19 10 11 0 21 3 23 8 2 6 136 78 215 116 13
6 23 14 23 19 0 4 9 7 19 7 11 0 21 3 23 8 3 8 141 76 176 87 12 3 22 10 22
15 0 5 16 12 36 16 19 3 41 15 47 25 7 11 20 19 29 19 10 0 18 5 18 10 0 6 6
10 14 10 8 0 16 3 18 8 2 4 41 27 88 51 47 24 92 50 101 57 8 8 23 14 32 14 9
0 17 3 17 8 0 4 9 12 19 17 56 29 202 119 212 131 6 8 18 14 25 14 8 0 14 5
14 10 0 6 6 10 14 10 8 0 16 3 18 8 2 4 32 27 68 52 36 24 70 49 76 55 7 5 24
19 39 30 74 53 235 215 235 235 0 6 5 10 10 10 6 0 10 7 10 15 0 8 3 15 8 15
15 0 57 116 57 160 1 27 -7 59 -20 82 -24 45 -36 49 -29 11z m34 -101 c0 -5
-7 -17 -15 -28 -14 -18 -14 -18 -15 4 0 13 4 20 10 17 6 -3 10 -1 10 4 0 6 2
11 5 11 3 0 5 -4 5 -8z"/>
<path d="M274 3883 c-4 -10 -9 -22 -9 -28 -1 -5 -5 -18 -10 -28 -15 -34 24
-187 47 -187 5 0 8 -6 8 -14 0 -8 3 -16 8 -18 4 -1 23 -23 42 -48 47 -62 175
-182 244 -229 12 -8 23 -18 26 -21 5 -6 99 -70 149 -102 14 -9 31 -21 36 -25
29 -24 160 -103 172 -103 7 0 13 -4 13 -10 0 -5 7 -10 15 -10 8 0 15 -4 15 -9
0 -5 10 -11 22 -14 21 -6 21 -7 -6 -28 -23 -18 -32 -20 -45 -11 -9 6 -43 27
-76 46 -33 19 -70 44 -82 56 -12 11 -26 20 -31 20 -4 0 -17 8 -28 18 -10 9
-44 34 -75 55 -31 21 -70 51 -87 67 -18 16 -32 27 -32 25 0 -20 -197 181 -245
250 -27 39 -50 72 -52 74 -2 2 -5 2 -8 -1 -9 -9 6 -58 16 -52 5 3 9 -3 9 -14
0 -10 8 -27 18 -38 9 -10 30 -37 47 -59 31 -42 202 -215 213 -215 4 0 27 -19
52 -41 25 -22 70 -57 100 -77 30 -20 63 -44 72 -53 10 -9 31 -22 46 -30 15 -8
31 -20 35 -27 5 -7 12 -10 18 -7 5 4 9 2 9 -3 0 -5 36 -31 80 -58 69 -42 80
-52 80 -76 0 -26 3 -28 43 -28 31 0 62 -11 121 -45 43 -25 82 -45 87 -45 5 0
9 -4 9 -10 0 -5 7 -10 15 -10 8 0 15 -4 15 -10 0 -5 8 -10 19 -10 10 0 24 -7
31 -15 7 -8 16 -12 21 -9 5 3 9 1 9 -4 0 -7 92 -61 215 -126 22 -12 41 -24 43
-28 2 -5 7 -8 12 -8 5 0 44 -21 87 -47 43 -25 97 -56 120 -68 24 -12 40 -25
36 -29 -3 -3 4 -6 16 -6 12 0 19 -4 16 -10 -3 -5 -2 -10 3 -10 19 0 183 -106
190 -122 2 -4 8 -8 12 -8 19 0 180 -153 180 -170 0 -5 -1 -11 -1 -12 -1 -2 8
-23 20 -46 12 -24 20 -46 18 -48 -5 -6 -28 21 -42 49 -6 12 -20 26 -31 32 -26
13 -106 74 -121 94 -7 8 -13 11 -13 7 0 -4 -7 -1 -15 6 -25 23 -38 32 -100 72
-33 22 -79 52 -103 68 -24 15 -47 28 -53 28 -5 0 -9 5 -9 10 0 6 -7 10 -15 10
-8 0 -15 5 -15 10 0 6 -9 10 -20 10 -11 0 -20 4 -20 10 0 5 -15 17 -32 25 -48
23 -89 47 -125 73 -17 12 -36 22 -42 22 -6 0 -11 5 -11 10 0 6 -9 10 -19 10
-10 0 -22 7 -25 16 -4 9 -9 14 -12 11 -3 -3 -30 10 -59 29 -30 19 -59 34 -65
34 -5 0 -10 5 -10 11 0 5 -4 8 -9 5 -5 -3 -14 1 -21 9 -7 8 -19 15 -26 15 -8
0 -14 5 -14 10 0 6 -9 10 -20 10 -11 0 -20 3 -20 8 0 4 -24 20 -53 36 -28 16
-54 32 -57 35 -3 3 -27 17 -53 31 -27 14 -57 33 -67 43 -11 9 -26 17 -34 17
-8 0 -16 4 -18 8 -3 8 -127 92 -135 92 -5 0 -75 51 -83 61 -3 3 -30 23 -60 44
-30 21 -57 41 -60 45 -3 3 -14 13 -26 21 -70 47 -258 227 -331 317 -34 40 -53
52 -53 33 0 -5 6 -16 13 -23 6 -7 31 -38 54 -68 43 -56 225 -237 302 -300 24
-19 49 -41 57 -47 7 -7 17 -13 23 -13 6 0 11 -3 11 -7 0 -5 17 -19 38 -33 20
-14 39 -27 42 -30 3 -3 21 -17 40 -30 19 -13 42 -30 50 -37 18 -17 168 -113
175 -113 3 0 18 -11 32 -24 15 -14 30 -23 35 -20 4 3 8 0 8 -5 0 -6 7 -11 15
-11 8 0 15 -4 15 -9 0 -5 12 -16 28 -23 42 -22 76 -42 82 -49 3 -4 21 -16 40
-27 19 -11 84 -49 143 -86 60 -36 113 -66 118 -66 5 0 9 -4 9 -10 0 -5 7 -10
15 -10 9 0 18 -7 21 -15 4 -8 10 -12 15 -9 5 3 9 1 9 -5 0 -5 10 -13 23 -17
12 -4 24 -10 27 -13 3 -4 26 -19 52 -34 26 -15 53 -34 62 -42 8 -9 18 -16 21
-15 21 1 25 -1 20 -10 -3 -5 1 -10 10 -10 9 0 22 -6 29 -12 7 -7 61 -47 119
-88 58 -41 106 -81 107 -87 0 -7 3 -13 8 -13 4 -1 25 -17 47 -36 22 -20 34
-33 26 -28 -10 5 -12 3 -7 -5 5 -7 15 -10 23 -7 8 3 12 2 9 -3 -3 -4 6 -14 19
-21 14 -7 25 -19 25 -27 0 -7 5 -13 11 -13 6 0 9 -6 6 -14 -3 -8 1 -20 9 -27
18 -15 64 -110 64 -132 0 -28 18 -19 25 12 7 33 4 130 -4 136 -7 4 -4 73 5
127 7 41 -12 138 -28 138 -5 0 -7 4 -4 9 3 5 -26 42 -64 82 -39 40 -70 69 -70
64 0 -4 -12 4 -26 19 -15 14 -31 26 -36 26 -5 0 -19 10 -31 21 -12 12 -40 30
-62 40 -22 10 -35 19 -30 19 6 0 -12 11 -40 25 -75 38 -128 69 -143 83 -8 7
-18 10 -23 7 -5 -4 -9 -2 -9 3 0 4 -36 26 -80 48 -44 21 -80 42 -80 46 0 5 -9
8 -20 8 -11 0 -20 5 -20 10 0 6 -9 10 -19 10 -11 0 -21 3 -23 8 -1 4 -23 18
-48 30 -77 41 -203 108 -245 132 -22 13 -67 37 -100 55 -47 26 -60 38 -60 56
0 20 -6 24 -30 26 -20 1 -23 0 -7 -4 12 -2 22 -11 22 -19 0 -20 -5 -18 -58 18
l-47 32 43 9 c39 8 48 5 123 -37 45 -25 85 -46 90 -46 5 0 9 -4 9 -10 0 -5 8
-10 18 -10 10 0 22 -4 28 -9 5 -5 56 -34 114 -63 58 -30 122 -64 143 -76 21
-12 44 -22 51 -22 8 0 17 -7 20 -16 3 -8 10 -13 15 -10 5 4 11 3 13 -2 1 -4
41 -27 88 -50 119 -59 177 -92 233 -130 26 -17 52 -32 56 -32 4 0 33 -18 65
-40 31 -22 61 -40 67 -40 6 0 7 -4 4 -10 -3 -5 -3 -10 2 -10 4 0 21 -11 36
-24 16 -14 32 -26 36 -28 12 -6 71 -86 71 -98 0 -16 28 -42 34 -31 3 4 3 11
-1 15 -4 3 -8 30 -10 58 -2 29 -8 57 -13 62 -6 6 -10 17 -10 25 0 16 -105 121
-120 121 -6 0 -10 5 -10 10 0 6 -7 10 -15 10 -7 0 -18 6 -22 13 -8 14 -189
117 -204 117 -5 0 -9 5 -9 10 0 6 -9 10 -20 10 -11 0 -20 5 -20 10 0 6 -9 10
-19 10 -11 0 -21 3 -23 8 -4 8 -149 82 -163 82 -6 0 -21 9 -35 20 -14 11 -33
20 -42 20 -10 0 -18 5 -18 10 0 6 -6 10 -13 10 -18 0 -67 24 -67 33 0 4 -6 7
-12 7 -17 0 -282 131 -286 142 -2 4 -11 8 -21 8 -9 0 -21 4 -26 9 -6 5 -48 29
-95 54 -114 59 -155 83 -297 170 -116 71 -115 71 -137 90 -11 9 -24 17 -29 17
-10 0 -100 71 -105 83 -2 4 -8 7 -13 7 -13 0 -44 27 -138 120 -103 103 -154
192 -150 261 1 24 7 52 12 63 5 11 5 22 -1 28 -6 6 -12 3 -18 -9z m830 -878
c24 -18 21 -20 -26 -29 -30 -5 -38 -4 -38 8 0 13 25 35 40 35 3 0 14 -6 24
-14z m22 -150 c14 -13 13 -15 -10 -15 -16 0 -26 6 -26 15 0 8 5 15 11 15 6 0
17 -7 25 -15z m1249 -1015 c3 -6 -1 -7 -9 -4 -18 7 -21 14 -7 14 6 0 13 -4 16
-10z"/>
<path d="M310 3820 c0 -11 -4 -20 -10 -20 -5 0 -10 -9 -10 -19 0 -11 5 -23 10
-26 6 -3 10 -13 10 -22 0 -24 133 -183 154 -183 3 0 23 -17 44 -37 21 -21 65
-56 98 -78 32 -22 60 -43 62 -47 2 -5 10 -8 18 -8 8 0 14 -4 14 -10 0 -5 7
-10 15 -10 8 0 15 -4 15 -9 0 -5 10 -13 23 -17 12 -4 24 -10 27 -13 8 -11 150
-91 161 -91 5 0 9 -4 9 -10 0 -5 7 -10 16 -10 8 0 22 -7 31 -15 8 -8 19 -13
24 -10 5 4 9 2 9 -3 0 -5 44 -32 98 -58 53 -27 99 -52 100 -56 2 -5 12 -8 23
-8 10 0 19 -4 19 -10 0 -5 9 -10 20 -10 11 0 20 -4 20 -10 0 -5 8 -10 19 -10
10 0 24 -7 31 -15 7 -8 16 -15 21 -15 10 0 112 -46 203 -91 32 -16 65 -29 72
-29 7 0 14 -4 16 -8 3 -8 274 -142 288 -142 5 0 10 -5 12 -11 2 -5 11 -11 20
-12 9 -2 22 -8 29 -13 8 -6 46 -28 84 -49 71 -39 137 -84 143 -97 2 -5 9 -8
15 -8 13 0 56 -50 76 -87 16 -32 29 -29 27 7 0 17 -4 30 -8 30 -5 0 -8 10 -8
23 0 29 -32 88 -65 121 -14 14 -28 26 -31 26 -3 0 -14 8 -25 19 -11 10 -64 40
-117 67 -53 27 -98 52 -100 57 -2 4 -10 7 -19 7 -8 0 -21 7 -29 15 -8 8 -22
11 -31 8 -11 -4 -14 -3 -9 5 5 8 0 12 -13 12 -11 0 -22 4 -25 8 -3 5 -47 26
-98 47 -51 21 -95 41 -98 44 -3 3 -14 8 -25 9 -11 2 -22 7 -25 11 -7 9 -53 32
-70 35 -8 1 -40 14 -70 28 -30 15 -93 43 -140 63 -47 20 -89 41 -95 46 -5 5
-17 9 -26 9 -10 0 -19 5 -21 11 -2 5 -10 11 -18 13 -8 1 -28 9 -45 18 -16 9
-91 47 -165 85 -122 62 -176 92 -235 131 -11 6 -35 20 -52 29 -18 9 -33 20
-33 25 0 4 -7 8 -15 8 -8 0 -15 5 -15 10 0 6 -7 10 -15 10 -8 0 -15 5 -15 10
0 6 -5 10 -11 10 -6 0 -17 6 -24 13 -8 6 -53 41 -99 77 -47 36 -85 70 -86 77
0 6 -4 13 -9 15 -12 4 -61 78 -61 91 0 6 8 1 18 -12 53 -73 221 -215 275 -234
9 -4 17 -11 17 -17 0 -6 5 -8 10 -5 5 3 10 2 10 -3 0 -5 24 -21 53 -36 63 -32
90 -48 98 -59 3 -5 9 -8 13 -7 13 3 64 -24 60 -32 -5 -7 18 -12 39 -9 4 0 7
-3 7 -9 0 -5 6 -10 14 -10 8 0 21 -6 28 -13 7 -6 49 -28 93 -46 44 -19 83 -40
87 -45 4 -6 8 -8 8 -3 0 4 21 -4 48 -17 26 -14 79 -39 117 -56 39 -18 88 -40
110 -50 22 -10 52 -22 68 -25 15 -4 27 -11 27 -17 0 -5 4 -7 9 -4 4 3 17 -1
27 -9 10 -8 27 -15 36 -15 9 0 18 -4 20 -10 2 -5 12 -11 23 -13 11 -2 58 -22
105 -44 47 -22 102 -45 122 -52 21 -7 40 -17 43 -22 4 -5 15 -9 26 -9 10 0 19
-4 19 -10 0 -5 9 -10 20 -10 11 0 20 -4 20 -8 0 -4 29 -21 65 -37 36 -17 65
-33 65 -36 0 -4 10 -9 23 -13 13 -3 49 -30 81 -61 32 -30 60 -55 62 -55 15 0
-19 88 -39 101 -5 3 -8 9 -8 13 3 18 -1 25 -28 52 -16 16 -36 34 -43 40 -25
20 -150 84 -164 84 -8 0 -14 5 -14 10 0 6 -7 10 -15 10 -9 0 -27 7 -40 16 -14
9 -25 12 -25 8 0 -5 -4 -3 -9 4 -5 8 -20 15 -35 15 -14 1 -26 5 -26 8 0 4 -28
17 -62 30 -35 13 -74 29 -88 36 -14 7 -33 13 -42 13 -10 0 -18 4 -18 8 0 4
-10 9 -22 9 -13 1 -24 7 -26 13 -2 5 -11 10 -21 10 -9 0 -21 4 -27 10 -5 5
-22 11 -37 12 -15 1 -27 5 -27 8 0 6 -43 25 -160 71 -47 18 -100 41 -118 51
-18 10 -41 18 -52 18 -11 0 -20 5 -20 10 0 6 -5 10 -11 10 -6 0 -57 23 -114
50 -57 28 -107 50 -112 50 -4 0 -25 11 -45 25 -20 14 -42 25 -48 25 -6 0 -18
7 -27 15 -8 8 -19 13 -24 10 -5 -4 -9 -2 -9 2 0 5 -19 19 -42 31 -72 38 -103
57 -106 65 -2 4 -10 7 -18 7 -8 0 -14 5 -14 10 0 6 -7 10 -15 10 -8 0 -15 5
-15 10 0 6 -4 10 -10 10 -22 0 -165 138 -175 169 -8 27 -25 27 -25 1z"/>
<path d="M4656 3822 c-8 -24 -79 -99 -136 -142 -25 -19 -47 -37 -50 -40 -3 -3
-16 -11 -30 -19 -14 -8 -64 -39 -112 -68 -47 -29 -91 -53 -97 -53 -6 0 -11 -4
-11 -10 0 -5 -9 -10 -20 -10 -11 0 -20 -4 -20 -10 0 -5 -9 -10 -20 -10 -11 0
-20 -4 -20 -10 0 -5 -4 -10 -9 -10 -6 0 -48 -18 -95 -40 -47 -22 -89 -40 -93
-40 -5 0 -14 -5 -21 -12 -6 -6 -22 -13 -34 -15 -13 -2 -24 -8 -26 -13 -2 -6
-11 -10 -20 -10 -9 0 -26 -7 -36 -15 -10 -8 -23 -12 -27 -9 -5 3 -9 1 -9 -4 0
-6 -12 -13 -27 -17 -15 -3 -45 -15 -68 -24 -22 -10 -68 -29 -102 -42 -35 -13
-63 -27 -63 -31 0 -5 -11 -8 -24 -8 -14 0 -28 -4 -31 -10 -3 -5 -15 -10 -25
-10 -10 0 -20 -5 -22 -10 -2 -6 -14 -12 -28 -12 -14 -1 -27 -5 -30 -8 -3 -3
-43 -21 -90 -39 -47 -18 -107 -43 -135 -56 -27 -12 -67 -28 -87 -36 -21 -7
-38 -17 -38 -21 0 -4 -6 -8 -12 -8 -7 0 -46 -17 -86 -37 -80 -42 -158 -106
-147 -122 3 -6 2 -11 -3 -11 -12 0 -56 -96 -49 -107 4 -6 28 11 54 36 26 25
80 63 118 83 39 21 86 46 105 57 34 18 146 72 220 104 19 8 58 25 85 38 28 12
57 23 65 24 30 4 60 18 60 27 0 6 7 8 15 4 8 -3 15 -1 15 5 0 6 7 9 15 5 8 -3
15 -2 15 3 0 8 120 71 135 71 13 0 100 44 103 53 2 4 15 7 28 7 13 0 24 5 24
10 0 6 9 10 20 10 11 0 20 4 20 9 0 5 12 12 28 16 26 6 232 104 242 115 3 3
12 6 20 8 8 2 17 8 18 13 2 5 12 9 23 9 10 0 19 4 19 9 0 5 16 15 35 22 19 7
35 17 35 21 0 4 6 8 14 8 8 0 37 16 66 35 29 19 55 35 59 35 5 0 16 9 26 20
10 11 22 20 27 20 15 0 102 68 161 125 54 52 107 123 107 142 0 21 -18 24 -24
5z"/>
<path d="M4664 3563 c-25 -44 -263 -293 -279 -293 -4 0 -28 -17 -54 -39 -25
-21 -57 -44 -71 -51 -14 -7 -29 -19 -33 -26 -4 -8 -14 -14 -21 -14 -8 0 -17
-7 -20 -16 -3 -8 -10 -13 -15 -10 -5 4 -11 3 -13 -1 -3 -9 -58 -46 -123 -84
-22 -13 -41 -27 -43 -31 -2 -4 -9 -8 -16 -8 -7 0 -21 -8 -32 -17 -11 -10 -40
-29 -65 -42 -126 -67 -175 -95 -181 -105 -4 -6 -8 -8 -8 -4 0 4 -33 -12 -72
-36 -40 -23 -95 -53 -123 -66 -27 -13 -58 -30 -69 -39 -10 -9 -19 -14 -20 -13
-2 7 -56 -21 -56 -30 0 -4 -9 -8 -19 -8 -11 0 -22 -3 -25 -8 -2 -4 -51 -31
-108 -61 -122 -63 -161 -84 -168 -91 -3 -3 -21 -14 -40 -24 -61 -34 -229 -140
-255 -161 -13 -11 -46 -38 -73 -60 -90 -74 -121 -139 -122 -252 0 -41 3 -53
16 -53 8 0 12 5 9 10 -7 12 16 70 28 70 5 0 6 4 3 9 -3 4 6 23 19 42 27 37
132 139 143 139 4 0 23 13 41 30 19 16 50 37 68 47 18 10 33 21 33 25 0 5 6 8
13 8 8 0 21 8 30 18 9 10 32 24 51 32 19 7 33 17 30 22 -3 4 4 8 15 8 10 0 21
4 23 9 2 4 46 32 98 62 52 30 109 62 125 72 17 9 38 20 48 23 9 4 17 10 17 15
0 5 4 9 9 9 5 0 53 25 106 55 54 30 101 55 106 55 5 0 9 5 9 11 0 5 5 7 10 4
6 -3 13 1 16 9 3 9 14 16 24 16 11 0 21 4 25 9 3 5 42 30 88 55 45 24 92 54
104 65 12 12 27 21 33 21 6 0 32 15 59 33 26 17 67 43 90 57 24 14 52 33 62
43 11 9 19 15 19 11 0 -5 69 44 80 57 3 3 32 24 65 46 34 23 67 48 74 57 7 9
17 16 22 16 8 0 53 39 150 132 22 20 39 42 39 49 0 7 3 10 6 6 7 -6 104 102
104 116 0 4 9 17 20 29 11 12 20 28 20 35 0 7 5 13 10 13 12 0 13 27 1 34 -5
3 -22 -15 -37 -41z"/>
<path d="M4628 3409 c-10 -10 -15 -19 -10 -19 4 0 0 -6 -9 -13 -8 -7 -24 -24
-33 -39 -10 -15 -22 -25 -27 -22 -5 3 -9 -1 -9 -10 0 -8 -35 -45 -77 -83 -42
-37 -93 -83 -113 -102 -19 -18 -53 -45 -75 -59 -22 -15 -42 -29 -45 -32 -3 -4
-23 -19 -45 -35 -22 -17 -42 -33 -45 -37 -3 -3 -11 -8 -19 -10 -7 -2 -24 -12
-36 -23 -12 -11 -48 -36 -79 -55 -31 -19 -56 -38 -56 -42 0 -5 -6 -8 -14 -8
-7 0 -19 -7 -26 -15 -7 -8 -16 -13 -20 -10 -5 3 -10 1 -12 -3 -1 -5 -39 -30
-83 -57 -44 -26 -83 -53 -87 -59 -4 -6 -8 -7 -8 -3 0 10 -60 -25 -60 -35 0 -4
-6 -8 -14 -8 -12 0 -217 -118 -243 -140 -7 -6 -13 -8 -13 -4 0 4 -8 1 -17 -7
-10 -8 -29 -20 -43 -28 -132 -76 -198 -115 -211 -127 -8 -8 -19 -14 -24 -14
-4 0 -23 -11 -40 -25 -18 -13 -35 -21 -39 -18 -3 4 -6 2 -6 -3 0 -5 -23 -22
-51 -39 -29 -16 -59 -37 -68 -45 -9 -8 -29 -21 -44 -29 -15 -8 -27 -18 -27
-23 0 -4 -4 -8 -10 -8 -15 0 -58 -37 -143 -124 -90 -93 -107 -134 -107 -255 1
-68 2 -74 15 -57 8 10 12 23 9 27 -3 5 -1 9 4 9 5 0 12 18 16 40 3 22 10 40
15 40 5 0 12 11 15 25 6 22 167 195 182 195 4 0 17 12 30 28 13 15 24 23 24
17 0 -6 3 -6 8 0 12 18 315 225 328 225 3 0 12 6 19 13 26 22 41 32 55 35 8 2
17 8 18 13 2 5 10 9 17 9 7 0 15 4 17 8 3 7 237 150 262 161 6 2 19 12 30 23
11 10 26 18 33 18 7 0 13 4 13 8 0 5 18 17 40 27 22 10 40 21 40 24 0 3 13 12
28 19 16 6 38 21 50 32 12 11 24 20 27 20 5 0 184 117 210 138 6 4 26 18 45
32 19 13 37 27 40 30 3 3 32 25 65 49 185 130 526 484 463 480 -7 0 -21 -9
-30 -20z"/>
<path d="M384 3223 c5 -5 31 -35 59 -67 79 -90 280 -286 294 -286 2 0 16 -11
31 -25 56 -52 178 -145 190 -145 6 0 12 -7 12 -15 0 -8 5 -15 12 -15 6 0 35
-18 64 -40 29 -22 57 -40 63 -40 5 0 11 -4 13 -8 5 -13 502 -352 516 -352 4 0
14 -9 22 -20 8 -11 19 -20 25 -20 6 0 26 -13 45 -29 19 -15 49 -35 65 -44 17
-8 40 -25 52 -36 12 -12 25 -21 28 -21 4 0 12 -6 19 -12 8 -7 24 -20 36 -28
12 -8 28 -20 34 -25 6 -6 36 -28 66 -50 69 -50 90 -67 104 -83 6 -8 23 -26 38
-42 15 -15 24 -31 20 -35 -4 -4 -2 -5 4 -3 6 1 37 -19 67 -46 72 -63 116 -146
124 -233 6 -65 23 -74 30 -16 14 110 14 133 3 133 -6 0 -8 4 -5 10 3 5 -3 29
-13 52 -11 24 -23 54 -27 68 -7 22 -105 131 -105 116 0 -4 -26 18 -57 49 -31
30 -63 55 -70 55 -15 0 -49 18 -73 40 -14 13 -105 72 -161 106 -10 5 -28 18
-41 27 -58 43 -249 167 -257 167 -5 0 -11 4 -13 9 -2 7 -132 93 -203 134 -11
7 -22 14 -25 17 -8 9 -113 76 -140 90 -14 7 -27 16 -30 19 -3 4 -45 34 -95 66
-129 86 -229 158 -238 173 -5 7 -12 10 -18 7 -5 -4 -9 -2 -9 2 0 5 -24 27 -52
48 -126 95 -362 317 -350 329 3 3 -2 6 -11 6 -9 0 -17 5 -17 10 0 6 -7 10 -17
10 -9 0 -13 -3 -9 -7z"/>
<path d="M4557 3209 c-21 -30 -145 -156 -212 -214 -99 -87 -113 -99 -169 -140
-30 -22 -55 -43 -56 -47 0 -5 -6 -8 -14 -8 -8 0 -16 -4 -18 -8 -1 -4 -25 -23
-53 -42 -27 -19 -52 -37 -55 -40 -7 -7 -224 -150 -282 -186 -27 -16 -48 -32
-48 -36 0 -5 -5 -8 -10 -8 -6 0 -49 -26 -98 -59 -48 -32 -102 -66 -119 -75
-18 -9 -33 -21 -33 -26 0 -6 -5 -10 -10 -10 -6 0 -59 -33 -118 -72 -59 -40
-120 -79 -135 -87 -15 -8 -27 -18 -27 -23 0 -4 -7 -8 -15 -8 -8 0 -15 -4 -15
-10 0 -5 -6 -10 -12 -10 -7 0 -26 -11 -42 -25 -16 -13 -37 -27 -47 -30 -11 -4
-19 -10 -19 -13 0 -4 -16 -16 -35 -26 -19 -11 -35 -23 -35 -28 0 -4 -7 -8 -15
-8 -8 0 -15 -4 -15 -8 0 -4 -15 -16 -32 -27 -18 -10 -40 -27 -49 -37 -9 -10
-21 -18 -26 -18 -21 0 -113 -116 -146 -184 -31 -62 -35 -79 -33 -136 3 -63 21
-129 32 -117 3 3 8 27 10 54 6 66 24 130 40 144 8 6 14 17 14 24 0 22 184 197
285 272 17 12 61 45 98 72 37 28 72 51 77 51 4 0 10 4 12 9 2 5 55 44 118 87
63 43 117 81 118 86 2 4 8 8 13 8 4 0 51 29 104 65 52 36 100 65 106 65 5 0 7
5 4 10 -3 6 -2 10 2 10 12 0 207 130 211 141 2 5 8 9 13 9 17 0 323 225 402
295 15 14 29 25 32 25 3 0 38 33 80 73 41 41 75 72 75 71 0 -2 30 29 68 69
134 143 137 147 108 147 -8 0 -21 -9 -29 -21z"/>
<path d="M3533 2935 c0 -8 4 -12 9 -9 5 3 6 10 3 15 -9 13 -12 11 -12 -6z"/>
<path d="M600 2895 c0 -18 113 -126 230 -219 52 -42 114 -92 137 -111 23 -19
46 -35 51 -35 6 0 12 -4 14 -8 3 -8 84 -73 128 -102 12 -8 30 -22 40 -31 10
-8 31 -24 46 -35 14 -10 37 -29 50 -41 13 -13 26 -23 30 -23 9 0 118 -82 122
-92 2 -5 8 -8 13 -8 6 0 21 -10 34 -22 29 -27 36 -33 100 -77 28 -19 52 -38
55 -41 3 -3 21 -17 40 -30 19 -13 40 -29 45 -36 6 -6 33 -26 60 -44 28 -19 57
-42 66 -52 9 -10 20 -18 23 -18 4 0 21 -13 38 -30 16 -16 33 -30 36 -30 4 0
27 -19 52 -41 112 -103 167 -158 214 -219 28 -36 54 -66 58 -68 5 -2 8 -10 8
-18 0 -7 10 -30 21 -51 17 -29 22 -56 23 -110 1 -40 4 -73 7 -73 9 0 27 23 27
33 0 4 5 34 12 67 7 32 9 67 5 77 -5 10 -9 24 -11 31 -21 103 -183 282 -412
455 -57 42 -107 77 -111 77 -5 0 -12 7 -15 16 -3 8 -10 12 -16 9 -5 -3 -10 -2
-10 4 0 5 -17 20 -37 32 -21 13 -40 26 -43 29 -3 4 -20 15 -37 25 -18 11 -33
23 -33 27 0 4 -7 8 -15 8 -8 0 -15 5 -15 10 0 6 -7 10 -15 10 -8 0 -15 3 -15
8 0 4 -9 12 -19 17 -11 6 -49 31 -86 58 -36 26 -70 47 -75 47 -6 0 -10 4 -10
8 0 5 -12 15 -27 23 -16 8 -34 20 -42 27 -7 7 -48 36 -90 64 -42 28 -77 55
-79 60 -2 4 -10 8 -17 8 -7 0 -15 4 -17 8 -1 4 -25 23 -53 42 -27 19 -56 41
-63 48 -7 6 -16 12 -20 12 -4 0 -21 14 -39 30 -18 17 -35 30 -38 30 -6 0 -24
14 -58 46 -12 11 -47 40 -77 65 -30 24 -81 69 -113 99 -58 55 -77 68 -77 55z"/>
<path d="M4372 2892 c-7 -2 -35 -25 -61 -51 -98 -94 -329 -282 -398 -324 -18
-10 -33 -23 -33 -28 0 -5 -7 -9 -15 -9 -8 0 -15 -4 -15 -10 0 -5 -6 -10 -12
-10 -7 -1 -29 -14 -48 -30 -19 -17 -38 -30 -43 -30 -4 0 -13 -5 -20 -10 -43
-37 -134 -100 -144 -100 -7 0 -13 -4 -13 -9 0 -5 -15 -18 -32 -30 -63 -39
-143 -94 -148 -100 -3 -3 -12 -10 -21 -16 -44 -28 -243 -167 -249 -175 -3 -4
-23 -19 -45 -34 -96 -64 -195 -146 -296 -246 -55 -54 -158 -190 -144 -190 4 0
-1 -12 -10 -26 -22 -35 -23 -146 -1 -198 18 -42 38 -40 30 3 -10 47 27 191 48
191 5 0 8 7 8 15 0 8 5 15 10 15 6 0 10 5 10 11 0 13 74 103 121 146 16 15 54
51 83 78 29 28 75 69 102 90 27 22 51 43 52 48 2 4 8 7 14 7 6 0 18 8 27 18 9
10 45 39 81 65 36 25 79 58 95 72 17 15 42 34 58 43 15 9 27 20 27 24 0 4 7 8
15 8 8 0 15 3 15 8 0 4 21 21 45 37 25 17 45 33 45 38 0 4 6 7 14 7 8 0 16 4
18 8 2 5 39 35 83 68 44 32 82 62 83 67 2 4 9 7 16 7 6 0 18 9 26 20 8 11 18
20 22 20 7 0 16 7 70 53 12 9 25 17 29 17 4 0 14 6 21 13 7 6 31 26 52 42 22
17 62 48 90 69 28 21 53 42 56 46 3 3 14 13 26 21 36 24 153 126 262 227 16
15 12 31 -6 24z"/>
<path d="M870 2515 c0 -8 3 -15 8 -15 4 0 22 -14 41 -30 18 -16 49 -42 68 -57
20 -15 67 -54 105 -85 38 -32 72 -58 76 -58 4 0 21 -13 37 -28 31 -29 34 -31
161 -126 44 -33 81 -63 82 -68 2 -4 10 -8 17 -8 7 0 15 -4 17 -8 2 -5 41 -39
88 -76 163 -129 218 -176 306 -261 23 -22 63 -60 90 -85 27 -25 76 -76 109
-114 33 -37 67 -75 76 -84 20 -21 68 -103 98 -164 17 -37 22 -64 22 -127 0
-45 4 -81 9 -81 14 0 44 109 42 153 -1 43 -29 134 -46 154 -32 36 -41 48 -38
51 2 2 -13 24 -35 50 -53 65 -143 163 -143 156 0 -3 -10 5 -22 18 -38 39 -122
112 -152 133 -16 11 -39 30 -52 43 -13 12 -26 22 -29 22 -3 0 -16 11 -29 25
-13 14 -26 25 -30 25 -4 0 -13 6 -21 13 -7 6 -25 21 -41 32 -15 11 -39 29 -53
41 -74 60 -242 184 -250 184 -5 0 -11 4 -13 8 -3 8 -53 48 -122 97 -16 11 -33
25 -40 30 -6 6 -38 30 -71 55 -33 25 -62 47 -65 50 -3 3 -21 17 -40 32 -19 14
-45 35 -57 47 -12 12 -25 21 -28 21 -3 0 -16 11 -29 25 -26 28 -46 32 -46 10z"/>
<path d="M4068 2503 c-18 -15 -49 -42 -68 -60 -19 -18 -38 -33 -41 -33 -3 0
-15 -8 -27 -17 -11 -10 -33 -27 -48 -38 -15 -11 -33 -26 -40 -32 -7 -7 -17
-13 -22 -13 -6 0 -12 -4 -14 -8 -4 -10 -176 -142 -185 -142 -3 0 -13 -8 -22
-18 -15 -17 -33 -30 -158 -117 -29 -21 -53 -41 -53 -46 0 -5 -4 -9 -10 -9 -9
0 -32 -17 -64 -45 -6 -6 -47 -38 -91 -72 -44 -34 -94 -75 -111 -90 -17 -15
-49 -41 -70 -58 -20 -16 -54 -46 -74 -65 -21 -19 -50 -47 -66 -61 -41 -37
-106 -109 -98 -109 4 0 -5 -9 -20 -21 -14 -11 -26 -27 -26 -35 0 -8 -4 -14 -9
-14 -11 0 -68 -115 -84 -170 -10 -34 -10 -54 -1 -85 19 -71 36 -105 50 -105
16 0 19 16 4 25 -5 3 -10 33 -10 65 0 32 5 62 10 65 6 3 10 15 10 25 0 21 80
159 120 204 62 73 109 124 165 178 33 32 80 78 105 102 25 24 74 67 110 97 36
29 67 55 70 59 5 6 106 89 128 105 8 6 25 20 38 32 14 13 27 22 30 22 3 0 22
13 42 30 76 62 152 121 157 121 3 0 18 11 33 24 46 42 69 60 92 76 20 13 70
52 125 98 11 9 50 41 88 70 37 30 67 59 67 64 0 5 5 6 10 3 6 -3 10 1 10 9 0
23 -14 20 -52 -11z"/>
</g>
</svg>
